<?xml version="1.0" encoding="UTF-8" ?>
<svg version="1.1" width="100" height="100" xmlns="http://www.w3.org/2000/svg" shape-rendering="crispEdges">
<rect x="26" y="17" width="17" height="5" fill="#000000" />
<rect x="56" y="17" width="17" height="5" fill="#000000" />
<rect x="22" y="22" width="4" height="9" fill="#000000" />
<rect x="26" y="22" width="7" height="5" fill="#90C331" />
<rect x="33" y="22" width="10" height="5" fill="#BEEE54" />
<rect x="43" y="22" width="4" height="5" fill="#000000" />
<rect x="52" y="22" width="4" height="5" fill="#000000" />
<rect x="56" y="22" width="10" height="5" fill="#BEEE54" />
<rect x="66" y="22" width="7" height="5" fill="#90C331" />
<rect x="73" y="22" width="4" height="9" fill="#000000" />
<rect x="26" y="27" width="7" height="4" fill="#548821" />
<rect x="33" y="27" width="10" height="4" fill="#90C331" />
<rect x="43" y="27" width="4" height="4" fill="#BEEE54" />
<rect x="47" y="27" width="5" height="14" fill="#000000" />
<rect x="52" y="27" width="4" height="4" fill="#BEEE54" />
<rect x="56" y="27" width="10" height="4" fill="#90C331" />
<rect x="66" y="27" width="7" height="4" fill="#548821" />
<rect x="26" y="31" width="7" height="5" fill="#000000" />
<rect x="33" y="31" width="5" height="5" fill="#548821" />
<rect x="38" y="31" width="9" height="5" fill="#90C331" />
<rect x="52" y="31" width="4" height="5" fill="#90C331" />
<rect x="56" y="31" width="5" height="5" fill="#5E9222" />
<rect x="61" y="31" width="5" height="5" fill="#548821" />
<rect x="66" y="31" width="7" height="5" fill="#000000" />
<rect x="33" y="36" width="5" height="5" fill="#000000" />
<rect x="38" y="36" width="9" height="5" fill="#548821" />
<rect x="52" y="36" width="4" height="5" fill="#5E9222" />
<rect x="56" y="36" width="5" height="5" fill="#548821" />
<rect x="61" y="36" width="5" height="5" fill="#000000" />
<rect x="86" y="36" width="5" height="3" fill="#A6E54D" />
<rect x="86" y="39" width="3" height="2" fill="#BEEE54" />
<rect x="89" y="39" width="2" height="2" fill="#A6E54D" />
<rect x="38" y="41" width="9" height="5" fill="#000000" />
<rect x="47" y="41" width="5" height="5" fill="#5E9222" />
<rect x="52" y="41" width="9" height="5" fill="#000000" />
<rect x="17" y="43" width="5" height="3" fill="#BEEE54" />
<rect x="77" y="43" width="5" height="3" fill="#BEEE54" />
<rect x="17" y="46" width="5" height="2" fill="#A6E54D" />
<rect x="43" y="46" width="4" height="12" fill="#000000" />
<rect x="47" y="46" width="5" height="12" fill="#548821" />
<rect x="52" y="46" width="4" height="12" fill="#000000" />
<rect x="77" y="46" width="5" height="2" fill="#A6E54D" />
<rect x="8" y="53" width="5" height="3" fill="#BEEE54" />
<rect x="33" y="53" width="10" height="5" fill="#000000" />
<rect x="56" y="53" width="10" height="5" fill="#000000" />
<rect x="82" y="53" width="4" height="5" fill="#BEEE54" />
<rect x="8" y="56" width="2" height="2" fill="#A6E54D" />
<rect x="10" y="56" width="3" height="2" fill="#BEEE54" />
<rect x="26" y="58" width="7" height="5" fill="#000000" />
<rect x="33" y="58" width="14" height="5" fill="#C17D4A" />
<rect x="47" y="58" width="5" height="5" fill="#4C731F" />
<rect x="52" y="58" width="14" height="5" fill="#C17D4A" />
<rect x="66" y="58" width="7" height="5" fill="#000000" />
<rect x="22" y="63" width="4" height="14" fill="#000000" />
<rect x="26" y="63" width="7" height="5" fill="#B17041" />
<rect x="33" y="63" width="5" height="5" fill="#82452D" />
<rect x="38" y="63" width="23" height="5" fill="#B17041" />
<rect x="61" y="63" width="5" height="5" fill="#82452D" />
<rect x="66" y="63" width="7" height="5" fill="#B17041" />
<rect x="73" y="63" width="4" height="14" fill="#000000" />
<rect x="26" y="68" width="7" height="9" fill="#82452D" />
<rect x="33" y="68" width="5" height="4" fill="#B17041" />
<rect x="38" y="68" width="5" height="9" fill="#82452D" />
<rect x="43" y="68" width="13" height="4" fill="#B17041" />
<rect x="56" y="68" width="5" height="9" fill="#82452D" />
<rect x="61" y="68" width="5" height="4" fill="#B17041" />
<rect x="66" y="68" width="7" height="9" fill="#82452D" />
<rect x="33" y="72" width="5" height="5" fill="#82452D" />
<rect x="43" y="72" width="13" height="5" fill="#82452D" />
<rect x="61" y="72" width="5" height="5" fill="#82452D" />
<rect x="26" y="77" width="47" height="5" fill="#000000" />
</svg>