<?xml version="1.0" encoding="UTF-8" ?>
<svg version="1.1" width="100" height="100" xmlns="http://www.w3.org/2000/svg" shape-rendering="crispEdges">
<rect x="44" y="14" width="3" height="3" fill="#090907" />
<rect x="47" y="14" width="2" height="3" fill="#050505" />
<rect x="49" y="14" width="3" height="3" fill="#080608" />
<rect x="52" y="14" width="2" height="3" fill="#0B0608" />
<rect x="54" y="14" width="3" height="3" fill="#080606" />
<rect x="57" y="14" width="3" height="3" fill="#0D0909" opacity="0.733333" />
<rect x="38" y="17" width="3" height="3" fill="#050503" />
<rect x="41" y="17" width="3" height="3" fill="#060405" />
<rect x="44" y="17" width="3" height="3" fill="#A4EF50" />
<rect x="47" y="17" width="2" height="3" fill="#A6EC4D" />
<rect x="49" y="17" width="3" height="3" fill="#75CB2E" />
<rect x="52" y="17" width="2" height="3" fill="#467E25" />
<rect x="54" y="17" width="3" height="3" fill="#427E27" />
<rect x="57" y="17" width="3" height="3" fill="#254017" />
<rect x="60" y="17" width="3" height="3" fill="#060405" />
<rect x="36" y="20" width="2" height="3" fill="#040606" />
<rect x="38" y="20" width="3" height="3" fill="#A0EE48" />
<rect x="41" y="20" width="3" height="3" fill="#A9EC4D" />
<rect x="44" y="20" width="3" height="3" fill="#A7EE4C" />
<rect x="47" y="20" width="2" height="3" fill="#A7EE4A" />
<rect x="49" y="20" width="3" height="3" fill="#417922" />
<rect x="52" y="20" width="2" height="3" fill="#A1ED46" />
<rect x="54" y="20" width="3" height="3" fill="#4D7B27" />
<rect x="57" y="20" width="3" height="3" fill="#447F27" />
<rect x="60" y="20" width="3" height="3" fill="#428129" />
<rect x="63" y="20" width="2" height="3" fill="#070A06" />
<rect x="33" y="23" width="3" height="3" fill="#060606" />
<rect x="36" y="23" width="2" height="3" fill="#A6EC4D" />
<rect x="38" y="23" width="3" height="3" fill="#A1EA48" />
<rect x="41" y="23" width="3" height="3" fill="#A1EC47" />
<rect x="44" y="23" width="3" height="3" fill="#A3EE43" />
<rect x="47" y="23" width="2" height="3" fill="#447C24" />
<rect x="49" y="23" width="3" height="3" fill="#9FEB44" />
<rect x="52" y="23" width="2" height="3" fill="#6AAA25" />
<rect x="54" y="23" width="3" height="3" fill="#69AD29" />
<rect x="57" y="23" width="3" height="3" fill="#508F28" />
<rect x="60" y="23" width="3" height="3" fill="#458026" />
<rect x="63" y="23" width="2" height="3" fill="#467E25" />
<rect x="65" y="23" width="3" height="3" fill="#050505" />
<rect x="28" y="26" width="3" height="2" fill="#090505" opacity="0.945098" />
<rect x="31" y="26" width="2" height="2" fill="#0B0A0B" />
<rect x="33" y="26" width="3" height="2" fill="#6EAB2A" />
<rect x="36" y="26" width="2" height="2" fill="#A0EB47" />
<rect x="38" y="26" width="3" height="2" fill="#6DB123" />
<rect x="41" y="26" width="3" height="2" fill="#73AE27" />
<rect x="44" y="26" width="3" height="2" fill="#A0EB47" />
<rect x="47" y="26" width="2" height="2" fill="#66AA2B" />
<rect x="49" y="26" width="3" height="2" fill="#6BAB2A" />
<rect x="52" y="26" width="2" height="2" fill="#67AB28" />
<rect x="54" y="26" width="3" height="5" fill="#458025" />
<rect x="57" y="26" width="3" height="2" fill="#458227" />
<rect x="60" y="26" width="3" height="2" fill="#447C28" />
<rect x="63" y="26" width="2" height="2" fill="#046231" />
<rect x="65" y="26" width="3" height="2" fill="#447E29" />
<rect x="68" y="26" width="2" height="2" fill="#0B0A0B" />
<rect x="70" y="26" width="3" height="2" fill="#080608" />
<rect x="26" y="28" width="2" height="3" fill="#040905" opacity="0.996078" />
<rect x="28" y="28" width="3" height="3" fill="#62AF2D" />
<rect x="31" y="28" width="2" height="3" fill="#76B62A" />
<rect x="33" y="28" width="3" height="3" fill="#A2EB4E" />
<rect x="36" y="28" width="2" height="3" fill="#6BAD28" />
<rect x="38" y="28" width="3" height="3" fill="#3F7625" />
<rect x="41" y="28" width="3" height="3" fill="#417925" />
<rect x="44" y="28" width="3" height="3" fill="#69AB2D" />
<rect x="47" y="28" width="2" height="3" fill="#6BAB2A" />
<rect x="49" y="28" width="3" height="3" fill="#69AD29" />
<rect x="52" y="28" width="2" height="3" fill="#6AAC2B" />
<rect x="57" y="28" width="3" height="3" fill="#226E29" />
<rect x="60" y="28" width="3" height="3" fill="#046231" />
<rect x="63" y="28" width="2" height="3" fill="#0B6031" />
<rect x="65" y="28" width="3" height="3" fill="#467F25" />
<rect x="68" y="28" width="2" height="3" fill="#467C28" />
<rect x="70" y="28" width="3" height="3" fill="#4A7926" />
<rect x="73" y="28" width="2" height="3" fill="#090C0B" />
<rect x="22" y="31" width="4" height="3" fill="#060905" />
<rect x="26" y="31" width="2" height="3" fill="#77B52F" />
<rect x="28" y="31" width="3" height="3" fill="#AFF052" />
<rect x="31" y="31" width="2" height="3" fill="#9FEB42" />
<rect x="33" y="31" width="3" height="3" fill="#6EAE29" />
<rect x="36" y="31" width="2" height="3" fill="#6CB02A" />
<rect x="38" y="31" width="3" height="3" fill="#9FEA44" />
<rect x="41" y="31" width="3" height="3" fill="#A0EB49" />
<rect x="44" y="31" width="3" height="3" fill="#407A27" />
<rect x="47" y="31" width="2" height="3" fill="#6AAC28" />
<rect x="49" y="31" width="3" height="3" fill="#6BAB28" />
<rect x="52" y="31" width="2" height="3" fill="#437D2B" />
<rect x="54" y="31" width="3" height="3" fill="#6AA930" />
<rect x="57" y="31" width="3" height="3" fill="#6BAF2A" />
<rect x="60" y="31" width="3" height="3" fill="#6CAE29" />
<rect x="63" y="31" width="2" height="3" fill="#156233" />
<rect x="65" y="31" width="3" height="3" fill="#056033" />
<rect x="68" y="31" width="2" height="3" fill="#437D27" />
<rect x="70" y="31" width="3" height="3" fill="#468126" />
<rect x="73" y="31" width="2" height="3" fill="#3F7624" />
<rect x="75" y="31" width="4" height="3" fill="#060505" />
<rect x="20" y="34" width="2" height="3" fill="#0F0909" />
<rect x="22" y="34" width="4" height="3" fill="#A9ED4D" />
<rect x="26" y="34" width="2" height="3" fill="#A1EA48" />
<rect x="28" y="34" width="3" height="3" fill="#A2ED49" />
<rect x="31" y="34" width="2" height="3" fill="#A3EF4A" />
<rect x="33" y="34" width="3" height="3" fill="#417B29" />
<rect x="36" y="34" width="2" height="3" fill="#9BE846" />
<rect x="38" y="34" width="3" height="3" fill="#9FE846" />
<rect x="41" y="34" width="3" height="3" fill="#9DEA41" />
<rect x="44" y="34" width="3" height="3" fill="#9FEB45" />
<rect x="47" y="34" width="2" height="3" fill="#005C33" />
<rect x="49" y="34" width="3" height="3" fill="#458026" />
<rect x="52" y="34" width="2" height="3" fill="#6DAA28" />
<rect x="54" y="34" width="3" height="3" fill="#6BB02C" />
<rect x="57" y="34" width="3" height="3" fill="#256A2C" />
<rect x="60" y="34" width="3" height="3" fill="#0E5F30" />
<rect x="63" y="34" width="2" height="3" fill="#0C5E34" />
<rect x="65" y="34" width="3" height="3" fill="#427C23" />
<rect x="68" y="34" width="2" height="3" fill="#96E638" />
<rect x="70" y="34" width="3" height="3" fill="#96E62F" />
<rect x="73" y="34" width="2" height="3" fill="#487C24" />
<rect x="75" y="34" width="4" height="3" fill="#4A7F27" />
<rect x="79" y="34" width="2" height="3" fill="#07090A" />
<rect x="17" y="37" width="3" height="3" fill="#070705" />
<rect x="20" y="37" width="2" height="3" fill="#A3E94A" />
<rect x="22" y="37" width="4" height="3" fill="#A5EB4E" />
<rect x="26" y="37" width="2" height="3" fill="#6DB126" />
<rect x="28" y="37" width="3" height="3" fill="#6AA727" />
<rect x="31" y="37" width="2" height="3" fill="#6DAD2B" />
<rect x="33" y="37" width="3" height="3" fill="#6BAA2A" />
<rect x="36" y="37" width="2" height="3" fill="#417824" />
<rect x="38" y="37" width="3" height="3" fill="#9DEB42" />
<rect x="41" y="37" width="3" height="3" fill="#A1EF4D" />
<rect x="44" y="37" width="3" height="3" fill="#72B12A" />
<rect x="47" y="37" width="2" height="3" fill="#417B29" />
<rect x="49" y="37" width="3" height="3" fill="#477D28" />
<rect x="52" y="37" width="2" height="3" fill="#427E27" />
<rect x="54" y="37" width="3" height="3" fill="#407C28" />
<rect x="57" y="37" width="3" height="3" fill="#22662E" />
<rect x="60" y="37" width="3" height="3" fill="#0E5D34" />
<rect x="63" y="37" width="2" height="3" fill="#417F25" />
<rect x="65" y="37" width="3" height="3" fill="#9FEB3D" />
<rect x="68" y="37" width="2" height="3" fill="#6CAE29" />
<rect x="70" y="37" width="3" height="3" fill="#6FB12B" />
<rect x="73" y="37" width="2" height="3" fill="#6EB42E" />
<rect x="75" y="37" width="4" height="3" fill="#478026" />
<rect x="79" y="37" width="2" height="3" fill="#055E30" />
<rect x="81" y="37" width="3" height="3" fill="#040606" />
<rect x="17" y="40" width="3" height="3" fill="#080607" />
<rect x="20" y="40" width="2" height="3" fill="#A4ED4A" />
<rect x="22" y="40" width="4" height="3" fill="#6FAD28" />
<rect x="26" y="40" width="2" height="3" fill="#9FED43" />
<rect x="28" y="40" width="3" height="3" fill="#98ED43" />
<rect x="31" y="40" width="2" height="3" fill="#98EA44" />
<rect x="33" y="40" width="3" height="3" fill="#6DAA28" />
<rect x="36" y="40" width="2" height="3" fill="#006031" />
<rect x="38" y="40" width="3" height="3" fill="#407C26" />
<rect x="41" y="40" width="3" height="3" fill="#417D27" />
<rect x="44" y="40" width="3" height="3" fill="#487F28" />
<rect x="47" y="40" width="2" height="3" fill="#6CAC29" />
<rect x="49" y="40" width="3" height="3" fill="#6CAE2B" />
<rect x="52" y="40" width="2" height="3" fill="#447E28" />
<rect x="54" y="40" width="3" height="3" fill="#13612C" />
<rect x="57" y="40" width="3" height="3" fill="#33732A" />
<rect x="60" y="40" width="3" height="3" fill="#448326" />
<rect x="63" y="40" width="2" height="3" fill="#6CAE2E" />
<rect x="65" y="40" width="3" height="3" fill="#71AE29" />
<rect x="68" y="40" width="2" height="3" fill="#6FAF2C" />
<rect x="70" y="40" width="3" height="3" fill="#6FB12A" />
<rect x="73" y="40" width="2" height="3" fill="#6DAF2C" />
<rect x="75" y="40" width="4" height="3" fill="#006131" />
<rect x="79" y="40" width="2" height="3" fill="#076332" />
<rect x="81" y="40" width="3" height="3" fill="#040705" />
<rect x="17" y="43" width="3" height="3" fill="#0B0608" />
<rect x="20" y="43" width="2" height="3" fill="#70AD2C" />
<rect x="22" y="43" width="4" height="3" fill="#6CAE29" />
<rect x="26" y="43" width="2" height="3" fill="#A0EC45" />
<rect x="28" y="43" width="3" height="3" fill="#66AA23" />
<rect x="31" y="43" width="2" height="3" fill="#6EAE29" />
<rect x="33" y="43" width="3" height="3" fill="#6CAE2C" />
<rect x="36" y="43" width="2" height="3" fill="#3F7B29" />
<rect x="38" y="43" width="3" height="3" fill="#016131" />
<rect x="41" y="43" width="3" height="3" fill="#135D33" />
<rect x="44" y="43" width="3" height="3" fill="#437D28" />
<rect x="47" y="43" width="2" height="3" fill="#457D28" />
<rect x="49" y="43" width="3" height="3" fill="#006030" />
<rect x="52" y="43" width="2" height="3" fill="#006130" />
<rect x="54" y="43" width="3" height="3" fill="#065C30" />
<rect x="57" y="43" width="3" height="3" fill="#63A52B" />
<rect x="60" y="43" width="3" height="3" fill="#6DAF2D" />
<rect x="63" y="43" width="2" height="3" fill="#6FAC2C" />
<rect x="65" y="43" width="3" height="3" fill="#6DAF2D" />
<rect x="68" y="43" width="2" height="3" fill="#417B27" />
<rect x="70" y="43" width="3" height="3" fill="#407A29" />
<rect x="73" y="43" width="2" height="3" fill="#106431" />
<rect x="75" y="43" width="4" height="3" fill="#0B6230" />
<rect x="79" y="43" width="2" height="3" fill="#0B6231" />
<rect x="81" y="43" width="3" height="3" fill="#070506" />
<rect x="17" y="46" width="3" height="3" fill="#0A0608" />
<rect x="20" y="46" width="2" height="3" fill="#74B12A" />
<rect x="22" y="46" width="4" height="3" fill="#3C7929" />
<rect x="26" y="46" width="2" height="3" fill="#075A2F" />
<rect x="28" y="46" width="3" height="3" fill="#75B127" />
<rect x="31" y="46" width="2" height="3" fill="#6AAE2B" />
<rect x="33" y="46" width="3" height="3" fill="#6EAE27" />
<rect x="36" y="46" width="2" height="3" fill="#6CAB2A" />
<rect x="38" y="46" width="3" height="3" fill="#417D25" />
<rect x="41" y="46" width="3" height="3" fill="#437D28" />
<rect x="44" y="46" width="3" height="3" fill="#106030" />
<rect x="47" y="46" width="2" height="3" fill="#006030" />
<rect x="49" y="46" width="3" height="3" fill="#005E30" />
<rect x="52" y="46" width="2" height="3" fill="#004927" />
<rect x="54" y="46" width="3" height="3" fill="#006030" />
<rect x="57" y="46" width="3" height="3" fill="#006130" />
<rect x="60" y="46" width="3" height="3" fill="#106031" />
<rect x="63" y="46" width="2" height="3" fill="#427E28" />
<rect x="65" y="46" width="3" height="3" fill="#467F27" />
<rect x="68" y="46" width="2" height="3" fill="#136131" />
<rect x="70" y="46" width="3" height="3" fill="#0F6633" />
<rect x="73" y="46" width="2" height="3" fill="#004727" />
<rect x="75" y="46" width="4" height="3" fill="#004A27" />
<rect x="79" y="46" width="2" height="3" fill="#10602D" />
<rect x="81" y="46" width="3" height="3" fill="#090907" />
<rect x="20" y="49" width="2" height="2" fill="#0B0A0A" />
<rect x="22" y="49" width="4" height="2" fill="#0E5D2F" />
<rect x="26" y="49" width="2" height="2" fill="#004322" />
<rect x="28" y="49" width="3" height="2" fill="#004525" />
<rect x="31" y="49" width="2" height="2" fill="#004724" />
<rect x="33" y="49" width="3" height="2" fill="#085F2F" />
<rect x="36" y="49" width="2" height="2" fill="#00622E" />
<rect x="38" y="49" width="3" height="2" fill="#01612D" />
<rect x="41" y="49" width="3" height="2" fill="#00612E" />
<rect x="44" y="49" width="3" height="2" fill="#085F30" />
<rect x="47" y="49" width="2" height="2" fill="#0B0608" />
<rect x="49" y="49" width="3" height="2" fill="#73301E" />
<rect x="52" y="49" width="2" height="2" fill="#070706" />
<rect x="54" y="49" width="3" height="2" fill="#004626" />
<rect x="57" y="49" width="3" height="2" fill="#005B2F" />
<rect x="60" y="49" width="3" height="2" fill="#086130" />
<rect x="63" y="49" width="5" height="2" fill="#004626" />
<rect x="68" y="49" width="2" height="2" fill="#004726" />
<rect x="70" y="49" width="3" height="2" fill="#004628" />
<rect x="73" y="49" width="2" height="2" fill="#004B25" />
<rect x="75" y="49" width="4" height="2" fill="#006031" />
<rect x="79" y="49" width="2" height="2" fill="#0A0909" />
<rect x="20" y="51" width="2" height="3" fill="#060506" />
<rect x="22" y="51" width="4" height="3" fill="#106432" />
<rect x="26" y="51" width="2" height="3" fill="#00682F" />
<rect x="28" y="51" width="3" height="3" fill="#004424" />
<rect x="31" y="51" width="2" height="3" fill="#004525" />
<rect x="33" y="51" width="3" height="3" fill="#004324" />
<rect x="36" y="51" width="2" height="3" fill="#040705" />
<rect x="38" y="51" width="3" height="3" fill="#90492B" />
<rect x="41" y="51" width="3" height="3" fill="#994B2D" />
<rect x="44" y="51" width="3" height="3" fill="#050403" />
<rect x="47" y="51" width="2" height="3" fill="#060706" />
<rect x="49" y="51" width="3" height="3" fill="#9A512F" />
<rect x="52" y="51" width="2" height="3" fill="#060606" />
<rect x="54" y="51" width="3" height="3" fill="#070606" />
<rect x="57" y="51" width="3" height="3" fill="#894A2C" />
<rect x="60" y="51" width="3" height="3" fill="#B76839" />
<rect x="63" y="51" width="2" height="3" fill="#080607" />
<rect x="65" y="51" width="3" height="3" fill="#004927" />
<rect x="68" y="51" width="2" height="3" fill="#004728" />
<rect x="70" y="51" width="3" height="3" fill="#004625" />
<rect x="73" y="51" width="2" height="3" fill="#016130" />
<rect x="75" y="51" width="4" height="3" fill="#106431" />
<rect x="79" y="51" width="2" height="3" fill="#060407" />
<rect x="22" y="54" width="4" height="3" fill="#070606" />
<rect x="26" y="54" width="2" height="3" fill="#060608" />
<rect x="28" y="54" width="3" height="3" fill="#056935" />
<rect x="31" y="54" width="2" height="3" fill="#0A6432" />
<rect x="33" y="54" width="3" height="3" fill="#0E5F2D" />
<rect x="36" y="54" width="2" height="3" fill="#004B24" />
<rect x="38" y="54" width="3" height="3" fill="#070406" />
<rect x="41" y="54" width="3" height="3" fill="#090605" />
<rect x="44" y="54" width="3" height="3" fill="#A45B34" />
<rect x="47" y="54" width="2" height="3" fill="#060507" />
<rect x="49" y="54" width="3" height="3" fill="#9C4F2E" />
<rect x="52" y="54" width="2" height="3" fill="#070506" />
<rect x="54" y="54" width="3" height="3" fill="#924D30" />
<rect x="57" y="54" width="3" height="3" fill="#482613" />
<rect x="60" y="54" width="3" height="3" fill="#050505" />
<rect x="63" y="54" width="2" height="3" fill="#004A28" />
<rect x="65" y="54" width="3" height="3" fill="#004724" />
<rect x="68" y="54" width="2" height="3" fill="#0B6232" />
<rect x="70" y="54" width="3" height="3" fill="#006532" />
<rect x="73" y="54" width="2" height="3" fill="#106433" />
<rect x="75" y="54" width="4" height="3" fill="#060606" />
<rect x="28" y="57" width="3" height="3" fill="#020200" />
<rect x="31" y="57" width="2" height="3" fill="#040604" />
<rect x="33" y="57" width="3" height="3" fill="#090906" />
<rect x="36" y="57" width="2" height="3" fill="#004424" />
<rect x="38" y="57" width="3" height="3" fill="#004321" />
<rect x="41" y="57" width="3" height="3" fill="#004622" />
<rect x="44" y="57" width="3" height="3" fill="#0E0C10" />
<rect x="47" y="57" width="2" height="3" fill="#CD7742" />
<rect x="49" y="57" width="3" height="3" fill="#954B2E" />
<rect x="52" y="57" width="2" height="3" fill="#964D2A" />
<rect x="54" y="57" width="3" height="3" fill="#180E0C" />
<rect x="57" y="57" width="3" height="3" fill="#00331E" />
<rect x="60" y="57" width="3" height="3" fill="#004A26" />
<rect x="63" y="57" width="2" height="3" fill="#004726" />
<rect x="65" y="57" width="3" height="3" fill="#090709" />
<rect x="68" y="57" width="2" height="3" fill="#030608" />
<rect x="70" y="57" width="3" height="3" fill="#0B0606" />
<rect x="73" y="57" width="2" height="3" fill="#080606" />
<rect x="47" y="60" width="2" height="3" fill="#080606" />
<rect x="49" y="60" width="3" height="3" fill="#CF7C3F" />
<rect x="52" y="60" width="2" height="3" fill="#864528" />
<rect x="54" y="60" width="3" height="3" fill="#080603" opacity="0.992157" />
<rect x="47" y="63" width="2" height="3" fill="#0C090A" />
<rect x="49" y="63" width="3" height="3" fill="#CA7740" />
<rect x="52" y="63" width="2" height="3" fill="#93462B" />
<rect x="54" y="63" width="3" height="3" fill="#060402" opacity="0.996078" />
<rect x="47" y="66" width="2" height="3" fill="#070608" />
<rect x="49" y="66" width="3" height="3" fill="#D37B44" />
<rect x="52" y="66" width="2" height="3" fill="#8B4327" />
<rect x="54" y="66" width="3" height="3" fill="#050505" opacity="0.996078" />
<rect x="47" y="69" width="2" height="3" fill="#090707" />
<rect x="49" y="69" width="3" height="3" fill="#D57F47" />
<rect x="52" y="69" width="2" height="3" fill="#8C4428" />
<rect x="54" y="69" width="3" height="3" fill="#060303" opacity="0.996078" />
<rect x="47" y="72" width="2" height="2" fill="#090909" />
<rect x="49" y="72" width="3" height="2" fill="#C1703D" />
<rect x="52" y="72" width="2" height="2" fill="#8C4628" />
<rect x="54" y="72" width="3" height="2" fill="#060606" opacity="0.992157" />
<rect x="44" y="74" width="3" height="3" fill="#0B0608" />
<rect x="47" y="74" width="2" height="3" fill="#CB763F" />
<rect x="49" y="74" width="3" height="3" fill="#C4723E" />
<rect x="52" y="74" width="2" height="3" fill="#8D412A" />
<rect x="54" y="74" width="3" height="3" fill="#5C2A18" />
<rect x="41" y="77" width="3" height="3" fill="#0C090C" />
<rect x="44" y="77" width="3" height="3" fill="#D68047" />
<rect x="47" y="77" width="2" height="3" fill="#8E492F" />
<rect x="49" y="77" width="3" height="3" fill="#924A2E" />
<rect x="52" y="77" width="2" height="3" fill="#894029" />
<rect x="54" y="77" width="3" height="3" fill="#823F2A" />
<rect x="57" y="77" width="3" height="3" fill="#0B0A0C" />
<rect x="41" y="80" width="3" height="3" fill="#060606" />
<rect x="44" y="80" width="3" height="3" fill="#070606" />
<rect x="47" y="80" width="2" height="3" fill="#090709" />
<rect x="49" y="80" width="5" height="3" fill="#060606" />
<rect x="54" y="80" width="3" height="3" fill="#060706" />
<rect x="57" y="80" width="3" height="3" fill="#070403" />
</svg>